<?xml version="1.0" standalone="no"?>
<!DOCTYPE svg PUBLIC "-//W3C//DTD SVG 20010904//EN"
 "http://www.w3.org/TR/2001/REC-SVG-20010904/DTD/svg10.dtd">
<svg version="1.0" xmlns="http://www.w3.org/2000/svg"
 width="808.000000pt" height="400.000000pt" viewBox="0 0 808.000000 600.000000"
 preserveAspectRatio="xMidYMid meet">

<g transform="translate(0.000000,807.000000) scale(0.100000,-0.100000)"
fill="#ffffff" stroke="none">
<path d="M3997 6144 c-208 -37 -383 -129 -532 -279 -130 -129 -215 -277 -263
-454 -22 -84 -25 -116 -25 -251 0 -135 3 -167 25 -251 48 -177 133 -325 263
-454 114 -114 250 -199 386 -242 l59 -18 0 -802 0 -803 250 0 250 0 0 799 0
798 70 23 c149 48 279 128 395 245 130 129 215 277 263 454 22 84 25 116 25
251 0 135 -3 167 -25 251 -77 284 -273 524 -533 649 -187 89 -409 120 -608 84z
m275 -485 c226 -47 398 -259 398 -489 0 -270 -230 -500 -500 -500 -270 0 -500
230 -500 500 0 225 164 433 383 486 66 16 152 17 219 3z"/>
<path d="M1535 6126 c-473 -79 -852 -397 -999 -836 -64 -193 -60 -104 -63
-1457 l-4 -1233 251 0 250 0 0 1180 c0 1037 2 1190 16 1258 60 295 291 526
586 586 403 83 799 -181 882 -586 14 -68 16 -221 16 -1258 l0 -1180 250 0 251
0 -4 1233 c-3 1140 -4 1238 -21 1307 -62 262 -165 450 -345 631 -184 183 -384
291 -636 344 -107 23 -327 28 -430 11z"/>
<path d="M5420 5880 l0 -250 415 0 415 0 0 -1525 0 -1525 250 0 250 0 0 1525
0 1525 435 0 435 0 0 250 0 250 -1100 0 -1100 0 0 -250z"/>
<path d="M1593 4036 c-181 -44 -334 -202 -372 -384 -35 -166 15 -330 138 -453
199 -199 503 -199 702 0 199 199 199 503 0 702 -126 126 -299 176 -468 135z"/>
</g>
</svg>
